Coordinates
version=1
nRows=27
nColumns=12
inDegrees=yes

Units are S.I. units (second, meters, Newtons, ...)
Angles are in degrees

endheader
time	SC_y	SC_z	SC_x	AC_y	AC_z	AC_x	GH_y	GH_z	GH_yy	EL_x	PS_y
       0.0               -26.7          35.45          9.734          31.35         -19.38          6.243           20.0         -17.78         -95.08          14.74          139.9
   0.02573              -26.71          35.45          9.745          31.36         -19.38          6.244          19.99         -17.76         -95.05          14.74          139.9
   0.05146              -26.71          35.45          9.755          31.36         -19.38          6.245          19.97         -17.75         -95.02          14.74          139.9
   0.07719              -26.72          35.45          9.767          31.37         -19.38          6.245          19.94         -17.73         -94.99          14.74          139.9
    0.1029              -26.72          35.45          9.779          31.37         -19.38          6.246          19.92         -17.72         -94.96          14.74          139.8
    0.1286              -26.73          35.45          9.792          31.38         -19.38          6.247           19.9          -17.7         -94.92          14.74          139.8
    0.1544              -26.73          35.44          9.806          31.39         -19.38          6.249          19.87         -17.68         -94.88          14.74          139.8
    0.1801              -26.74          35.44          9.821           31.4         -19.38           6.25          19.84         -17.66         -94.84          14.73          139.8
    0.2058              -26.74          35.44          9.837           31.4         -19.38          6.251          19.82         -17.64          -94.8          14.73          139.7
    0.2316              -26.75          35.44          9.854          31.41         -19.38          6.252          19.78         -17.62         -94.75          14.73          139.7
    0.2573              -26.76          35.43          9.872          31.42         -19.38          6.254          19.75         -17.59          -94.7          14.73          139.7
     0.283              -26.77          35.43          9.892          31.43         -19.38          6.255          19.71         -17.57         -94.64          14.73          139.6
    0.3087              -26.77          35.43          9.913          31.44         -19.38          6.257          19.67         -17.54         -94.58          14.72          139.6
    0.3345              -26.78          35.42          9.936          31.45         -19.38          6.259          19.63         -17.51         -94.52          14.72          139.5
    0.3602              -26.79          35.42          9.961          31.46         -19.38          6.261          19.59         -17.48         -94.45          14.72          139.5
    0.3859               -26.8          35.41          9.988          31.48         -19.38          6.263          19.54         -17.44         -94.37          14.72          139.4
    0.4117              -26.82          35.41          10.02          31.49         -19.38          6.265          19.48          -17.4         -94.29          14.71          139.4
    0.4374              -26.83           35.4          10.05          31.51         -19.38          6.268          19.42         -17.36          -94.2          14.71          139.3
    0.4631              -26.84           35.4          10.08          31.53         -19.38          6.271          19.36         -17.31          -94.1          14.71          139.3
    0.4888              -26.86          35.39          10.12          31.55         -19.38          6.274          19.29         -17.26         -93.99           14.7          139.2
    0.5146              -26.87          35.39          10.16          31.57         -19.38          6.277          19.21         -17.21         -93.87           14.7          139.1
    0.5403              -26.89          35.38          10.21          31.59         -19.38          6.281          19.13         -17.15         -93.75          14.69          139.0
     0.566              -26.91          35.37          10.26          31.61         -19.38          6.285          19.03         -17.08          -93.6          14.69          138.9
    0.5918              -26.94          35.36          10.32          31.64         -19.38          6.289          18.93         -17.01         -93.44          14.68          138.8
    0.6175              -26.96          35.35          10.38          31.67         -19.38          6.294          18.81         -16.92         -93.27          14.67          138.7
    0.6432              -26.99          35.34          10.45          31.71         -19.38            6.3          18.68         -16.83         -93.07          14.67          138.6
     0.669              -27.02          35.33          10.53          31.75         -19.38          6.306          18.54         -16.73         -92.85          14.66          138.4
